<svg width="631" height="567" viewBox="0 0 631 567" fill="none" xmlns="http://www.w3.org/2000/svg">
<g opacity="0.1">
<path d="M522.802 315.872C522.792 335.274 509.452 352.19 490.425 356.934C471.397 361.674 451.543 353.031 442.232 335.952L417.678 342.457L424.255 366.735C442.939 366.133 459.857 377.585 466.053 395.022C472.245 412.461 466.285 431.857 451.326 442.94C436.366 454.022 415.864 454.228 400.68 443.451C392.953 460.236 375.117 470.139 356.602 467.924C338.086 465.711 323.153 451.889 319.697 433.766C316.241 415.642 325.058 397.394 341.488 388.664L334.909 364.378L310.355 370.882C310.938 390.515 297.801 407.971 278.613 413.059C261.153 417.721 242.616 411.011 232.326 396.306C227.307 389.15 224.654 380.603 224.738 371.863C224.822 363.122 227.64 354.627 232.796 347.569C215.841 339.917 205.847 322.292 208.093 303.999C210.339 285.703 224.308 270.953 242.622 267.536C260.936 264.118 279.38 272.819 288.215 289.044L312.769 282.539L306.19 258.261C287.497 258.881 270.561 247.431 264.358 229.984C258.156 212.537 264.125 193.129 279.096 182.045C294.07 170.964 314.587 170.774 329.767 181.574C337.494 164.788 355.328 154.886 373.845 157.101C392.361 159.314 407.294 173.136 410.75 191.259C414.203 209.383 405.389 227.63 388.959 236.36L395.536 260.637L420.092 254.143C419.508 234.509 432.646 217.054 451.832 211.966C469.294 207.304 487.831 214.014 498.118 228.718C503.138 235.874 505.791 244.422 505.707 253.162C505.623 261.903 502.805 270.397 497.649 277.455C512.945 284.256 522.788 299.289 522.802 315.872ZM395.753 335.572C395.753 331.162 398.752 327.303 403.062 326.166L445.541 314.917C448.063 314.248 450.748 314.597 453.015 315.889C454.132 316.524 455.112 317.373 455.9 318.388C456.688 319.403 457.267 320.564 457.605 321.804C460.589 333.075 471.666 340.327 483.327 338.643C494.987 336.96 503.504 326.881 503.107 315.235C502.708 303.591 493.523 294.102 481.774 293.201C477.614 292.874 474.113 289.991 473.037 286.003L471.993 282.109C471.471 280.161 471.57 278.099 472.276 276.21C472.983 274.322 474.261 272.701 475.933 271.573C485.573 264.976 488.675 252.277 483.143 242.058C477.612 231.837 465.205 227.345 454.308 231.618C443.408 235.889 437.485 247.564 440.536 258.757C441.94 263.948 438.823 269.284 433.574 270.678L391.095 281.935C388.573 282.604 385.889 282.255 383.621 280.963C382.504 280.328 381.523 279.479 380.735 278.464C379.947 277.449 379.368 276.288 379.03 275.048L367.655 233.049C367.32 231.813 367.234 230.523 367.403 229.254C367.572 227.985 367.992 226.762 368.639 225.657C369.954 223.414 372.104 221.782 374.618 221.12C386.018 218.168 393.352 207.215 391.65 195.687C389.95 184.157 379.753 175.735 367.977 176.128C356.201 176.521 346.604 185.605 345.692 197.224C345.523 199.24 344.732 201.154 343.428 202.701C342.124 204.248 340.373 205.352 338.414 205.861L334.474 206.893C332.513 207.413 330.439 207.318 328.534 206.621C326.628 205.924 324.982 204.659 323.819 202.996C317.147 193.464 304.306 190.397 293.969 195.867C283.632 201.338 279.09 213.604 283.411 224.379C287.729 235.155 299.539 241.014 310.858 237.996C316.111 236.609 321.505 239.69 322.913 244.881L334.299 286.882C334.634 288.118 334.719 289.407 334.551 290.676C334.382 291.945 333.962 293.167 333.316 294.272C332.001 296.517 329.851 298.149 327.335 298.812L284.856 310.058C282.334 310.727 279.649 310.378 277.382 309.086C276.265 308.452 275.285 307.602 274.497 306.588C273.71 305.573 273.131 304.413 272.793 303.173C269.808 291.902 258.731 284.651 247.07 286.332C235.41 288.016 226.893 298.096 227.29 309.74C227.689 321.384 236.874 330.873 248.624 331.775C252.783 332.101 256.284 334.984 257.36 338.972L258.404 342.866C258.927 344.814 258.828 346.877 258.121 348.766C257.415 350.655 256.137 352.276 254.464 353.404C244.824 360.001 241.722 372.698 247.254 382.917C252.785 393.138 265.192 397.63 276.089 393.359C286.989 389.086 292.912 377.411 289.861 366.218C288.457 361.027 291.574 355.691 296.823 354.299L339.302 343.042C341.824 342.373 344.509 342.722 346.776 344.014C347.893 344.649 348.874 345.498 349.662 346.513C350.45 347.527 351.029 348.688 351.368 349.927L362.743 391.928C363.077 393.163 363.162 394.453 362.993 395.722C362.824 396.991 362.404 398.213 361.758 399.318C360.443 401.561 358.294 403.193 355.779 403.855C344.379 406.809 337.045 417.76 338.747 429.29C340.447 440.818 350.644 449.24 362.42 448.847C374.196 448.454 383.793 439.37 384.705 427.753C384.874 425.737 385.665 423.824 386.969 422.276C388.273 420.729 390.025 419.625 391.983 419.117L395.923 418.082C397.884 417.563 399.958 417.657 401.863 418.354C403.769 419.051 405.415 420.316 406.578 421.979C413.25 431.511 426.091 434.578 436.428 429.108C446.765 423.638 451.307 411.371 446.986 400.596C442.668 389.821 430.859 383.961 419.539 386.981C414.286 388.367 408.892 385.285 407.484 380.094L396.098 338.095C395.869 337.274 395.754 336.425 395.755 335.572L395.753 335.572ZM176.063 108.01C176.063 128.099 165.974 157.419 148.455 186.904C124.16 227.761 87.1533 265.7 63.3008 252.283C41.0429 239.804 53.4706 195.805 70.9614 161.924L88.479 170.755C68.1983 210.154 69.2489 233.256 72.9965 235.397C78.1877 238.315 105.116 221.478 131.506 177.078C151.621 143.236 158.916 113.634 155.749 101.872C155.586 100.842 155.106 99.8863 154.374 99.1397C150.647 97.0467 129.922 107.272 105.351 142.7L89.1388 131.689C111.221 99.8387 142.507 70.1187 164.067 82.2115C166.749 83.7854 169.079 85.8925 170.914 88.4025C172.749 90.9125 174.049 93.7721 174.735 96.8047C175.67 100.465 176.115 104.234 176.063 108.01Z" fill="black"/>
<path d="M245.827 148.491C245.827 168.474 235.806 197.652 218.372 226.973C194.209 267.617 157.403 305.358 133.691 292.014L64.0117 252.908L73.6619 236.069L143.381 275.174C148.535 278.078 175.318 261.326 201.561 217.112C221.569 183.446 228.843 153.978 225.676 142.299C225.515 141.269 225.037 140.314 224.307 139.569L154.588 100.474L164.228 83.6366L233.947 122.732C236.619 124.305 238.939 126.409 240.766 128.914C242.592 131.419 243.886 134.272 244.567 137.296C245.477 140.957 245.897 144.721 245.827 148.491Z" fill="black"/>
<path d="M129.553 153.552C129.544 157.022 128.604 160.426 126.831 163.409L116.672 180.505C111.057 189.801 98.9872 192.976 89.4548 187.665L46.5832 163.593C26.5155 152.512 16.8343 129.17 23.2395 107.313L31.0117 80.9377C33.5722 72.1582 29.6467 62.7935 21.5621 58.3903L15.7836 55.1473C12.3313 53.2404 9.29779 50.6584 6.86361 47.5552C4.42942 44.452 2.64428 40.8909 1.61439 37.0837C0.581653 33.3358 0.323567 29.4166 0.855884 25.5656C1.3882 21.7146 2.69975 18.0125 4.71048 14.6852C13.2004 0.65454 31.4316 -4.11273 45.8055 3.93878L50.5107 6.57574C82.6422 24.2981 98.1516 61.6601 87.8975 96.6457L82.3051 115.628L119.475 136.465C122.52 138.162 125.059 140.639 126.831 143.642C128.602 146.645 129.54 150.066 129.553 153.552ZM99.1774 170.656C99.2544 170.704 99.346 170.724 99.436 170.712C99.526 170.699 99.6087 170.655 99.6697 170.588L109.829 153.492L72.6197 132.655C64.6303 128.213 60.7814 118.904 63.3294 110.186L68.9197 91.2146C76.5576 64.9279 64.8702 36.8997 40.7343 23.6135L36.0395 20.9745C31.0345 18.1452 24.6644 19.7791 21.6718 24.658C21.017 25.7605 20.592 26.984 20.4225 28.2551C20.2529 29.5261 20.3423 30.8182 20.6852 32.0538C21.0351 33.3431 21.6417 34.5484 22.4687 35.5975C23.2957 36.6466 24.326 37.5179 25.4979 38.1592L31.2765 41.4021C47.3112 50.2705 55.0483 68.9257 49.9357 86.3978L42.1738 112.776C38.3683 125.925 44.2275 139.937 56.3079 146.566L99.1774 170.656ZM121.094 322.478L100.76 324.009C100.218 317.122 99.953 310.084 99.953 303.108L120.352 303.108C120.352 309.581 120.594 316.096 121.094 322.478ZM630.63 303.31C630.768 440.738 524.273 555.08 386.27 565.678C248.266 576.275 125.33 479.552 104.182 343.737L123.57 340.815C141.82 456.702 240.712 543.186 358.802 546.528C476.892 549.872 580.59 469.124 605.462 354.459C630.334 239.792 569.305 123.824 460.299 78.6069L467.86 60.6446C566.559 101.396 630.805 197.179 630.63 303.31ZM446.69 51.9023L440.531 71.0952C434.275 69.0745 427.808 67.2277 421.318 65.6703L425.917 46.0121C432.908 47.7344 439.836 49.699 446.69 51.9023ZM406.52 42.856L403.583 62.2805C391.101 60.3554 378.49 59.3895 365.861 59.3912C307.049 59.3945 250.214 80.6201 205.797 119.168L192.981 104.304C240.955 62.671 302.341 39.7463 365.861 39.7413C379.474 39.7413 393.066 40.7837 406.52 42.856Z" fill="black"/>
</g>
</svg>
