<svg width="168" height="129" viewBox="0 0 168 129" fill="none" xmlns="http://www.w3.org/2000/svg">
<rect width="168" height="129" rx="16" fill="#0C3865"/>
<rect x="4.5" y="4.5" width="159" height="112" rx="11.5" fill="#065A91" stroke="#025396" stroke-width="9"/>
<g filter="url(#filter0_d_34_42)">
<path fill-rule="evenodd" clip-rule="evenodd" d="M89.9659 34.7816C90.1317 35.8507 90.9933 36.7329 92.0751 36.7329H93.0546C94.1365 36.7329 95.0135 37.6099 95.0135 38.6918V40.326C95.0135 41.1927 95.5862 41.9497 96.4024 42.2411C107.006 46.028 114.603 56.1696 114.603 68.0753C114.603 75.3488 111.713 82.3244 106.57 87.4675C101.427 92.6106 94.4514 95.5 87.1779 95.5C79.9044 95.5 72.9288 92.6106 67.7857 87.4675C62.6426 82.3244 59.7532 75.3488 59.7532 68.0753C59.7532 56.1696 67.3501 46.028 77.9534 42.2411C78.7696 41.9497 79.3423 41.1927 79.3423 40.326V38.6918C79.3423 37.6099 80.2193 36.7329 81.3012 36.7329H82.2806C83.3625 36.7329 84.2665 35.8385 83.9616 34.8005C83.6409 33.7088 83.0504 32.7039 82.2314 31.8848C80.9456 30.5991 79.2017 29.8767 77.3834 29.8767C75.565 29.8767 73.8211 30.5991 72.5353 31.8848C71.2495 33.1706 70.5272 34.9145 70.5272 36.7329C70.5272 39.0708 69.5985 41.3129 67.9453 42.9661C66.2922 44.6192 64.05 45.5479 61.7121 45.5479C59.3742 45.5479 57.1321 44.6192 55.4789 42.9661C53.8258 41.3129 52.8971 39.0708 52.8971 36.7329V35.7534C52.8971 34.6716 53.7741 33.7945 54.856 33.7945H56.8149C57.8967 33.7945 58.7738 34.6716 58.7738 35.7534V36.7329C58.7738 38.3784 60.0667 39.6712 61.7121 39.6712C63.3576 39.6712 64.6505 38.3784 64.6505 36.7329C64.6505 33.3559 65.992 30.1173 68.3799 27.7294C70.7677 25.3415 74.0064 24 77.3834 24C80.7603 24 83.999 25.3415 86.3869 27.7294C88.3099 29.6524 89.5543 32.1272 89.9659 34.7816ZM94.9782 54.5818C94.1159 54.0932 93.813 52.9981 94.3016 52.1358C94.7902 51.2736 95.8853 50.9707 96.7476 51.4593L97.8218 52.068C109.92 58.9235 109.223 76.5814 96.6218 82.4618C95.7237 82.8809 94.6558 82.4926 94.2367 81.5945C93.8176 80.6964 94.2059 79.6286 95.104 79.2095C105.062 74.5624 105.613 60.6081 96.0523 55.1905L94.9782 54.5818Z" fill="black"/>
</g>
<defs>
<filter id="filter0_d_34_42" x="42.897" y="18" width="81.7056" height="91.5" filterUnits="userSpaceOnUse" color-interpolation-filters="sRGB">
<feFlood flood-opacity="0" result="BackgroundImageFix"/>
<feColorMatrix in="SourceAlpha" type="matrix" values="0 0 0 0 0 0 0 0 0 0 0 0 0 0 0 0 0 0 127 0" result="hardAlpha"/>
<feOffset dy="4"/>
<feGaussianBlur stdDeviation="5"/>
<feComposite in2="hardAlpha" operator="out"/>
<feColorMatrix type="matrix" values="0 0 0 0 0 0 0 0 0 0 0 0 0 0 0 0 0 0 0.5 0"/>
<feBlend mode="normal" in2="BackgroundImageFix" result="effect1_dropShadow_34_42"/>
<feBlend mode="normal" in="SourceGraphic" in2="effect1_dropShadow_34_42" result="shape"/>
</filter>
</defs>
</svg>
