<svg width="30" height="33" viewBox="0 0 30 33" fill="none" xmlns="http://www.w3.org/2000/svg">
<g clip-path="url(#clip0_33_376)">
<path d="M28.6592 15.8609C27.8292 15.553 26.9054 15.9814 26.5975 16.8115C25.9147 18.6724 21.4164 20.6806 15.3383 20.6806C9.42083 20.6806 4.98943 18.7795 4.13261 16.9453C3.75775 16.1421 2.79382 15.794 1.99055 16.1688C1.18727 16.5437 0.839189 17.5076 1.21405 18.3109C2.78043 21.6579 8.4569 23.8937 15.3383 23.8937C18.6183 23.8937 21.8046 23.3581 24.3349 22.3674C27.1196 21.283 28.9538 19.7434 29.6231 17.9093C29.9177 17.0926 29.4893 16.1688 28.6592 15.8609Z" fill="white"/>
<path d="M28.6592 24.0542C27.8292 23.7463 26.9054 24.1747 26.5975 25.0048C25.9147 26.8657 21.4164 28.8739 15.3383 28.8739C9.42083 28.8739 4.98943 26.9728 4.13261 25.1386C3.75775 24.3354 2.79382 23.9873 1.99055 24.3621C1.18727 24.737 0.839189 25.7009 1.21405 26.5042C2.78043 29.8512 8.4569 32.087 15.3383 32.087C18.6183 32.087 21.8046 31.5514 24.3349 30.5607C27.1196 29.4763 28.9538 27.9367 29.6231 26.1026C29.9177 25.2725 29.4893 24.3488 28.6592 24.0542Z" fill="white"/>
<path d="M15.3383 0.692322C7.03779 0.692322 0.785645 3.9188 0.785645 8.20293C0.785645 12.4871 7.03779 15.7135 15.3383 15.7135C23.6388 15.7135 29.8909 12.4871 29.8909 8.20293C29.8909 3.9188 23.6388 0.692322 15.3383 0.692322ZM15.3383 12.5004C8.41674 12.5004 3.99874 9.95674 3.99874 8.20293C3.99874 6.44911 8.41674 3.90541 15.3383 3.90541C22.2598 3.90541 26.6778 6.44911 26.6778 8.20293C26.6778 9.95674 22.2598 12.5004 15.3383 12.5004Z" fill="white"/>
</g>
<defs>
<clipPath id="clip0_33_376">
<rect width="29.2143" height="31.4615" fill="white" transform="translate(0.785645 0.692322)"/>
</clipPath>
</defs>
</svg>
