<svg width="38" height="46" viewBox="0 0 38 46" fill="none" xmlns="http://www.w3.org/2000/svg">
<g clip-path="url(#clip0_99_2700)">
<g filter="url(#filter0_d_99_2700)">
<path d="M34.74 16.7261L9.052 0.894094C7.194 -0.249906 4.948 -0.299906 3.042 0.766094C1.14 1.83009 0 3.76809 0 5.95009V37.4741C0 40.7741 2.66 43.4741 5.926 43.4901H5.952C6.974 43.4901 8.038 43.1701 9.032 42.5641C9.832 42.0761 10.084 41.0321 9.596 40.2321C9.108 39.4321 8.066 39.1801 7.266 39.6681C6.8 39.9521 6.346 40.0981 5.946 40.0981C4.712 40.0921 3.392 39.0361 3.392 37.4741V5.95009C3.392 5.01409 3.88 4.18409 4.696 3.72609C5.514 3.27009 6.476 3.29009 7.274 3.78009L32.96 19.6141C33.732 20.0901 34.174 20.8821 34.172 21.7901C34.172 22.6961 33.726 23.4861 32.95 23.9601L14.378 35.3321C13.578 35.8201 13.328 36.8641 13.818 37.6641C14.306 38.4621 15.35 38.7121 16.148 38.2241L34.718 26.8541C36.496 25.7701 37.558 23.8781 37.564 21.7961C37.568 19.7141 36.512 17.8181 34.74 16.7261Z" fill="black"/>
</g>
<path d="M34.74 16.7261L9.052 0.894094C7.194 -0.249906 4.948 -0.299906 3.042 0.766094C1.14 1.83009 0 3.76809 0 5.95009V37.4741C0 40.7741 2.66 43.4741 5.926 43.4901H5.952C6.974 43.4901 8.038 43.1701 9.032 42.5641C9.832 42.0761 10.084 41.0321 9.596 40.2321C9.108 39.4321 8.066 39.1801 7.266 39.6681C6.8 39.9521 6.346 40.0981 5.946 40.0981C4.712 40.0921 3.392 39.0361 3.392 37.4741V5.95009C3.392 5.01409 3.88 4.18409 4.696 3.72609C5.514 3.27009 6.476 3.29009 7.274 3.78009L32.96 19.6141C33.732 20.0901 34.174 20.8821 34.172 21.7901C34.172 22.6961 33.726 23.4861 32.95 23.9601L14.378 35.3321C13.578 35.8201 13.328 36.8641 13.818 37.6641C14.306 38.4621 15.35 38.7121 16.148 38.2241L34.718 26.8541C36.496 25.7701 37.558 23.8781 37.564 21.7961C37.568 19.7141 36.512 17.8181 34.74 16.7261Z" fill="white"/>
</g>
<defs>
<filter id="filter0_d_99_2700" x="0" y="0" width="37.564" height="45.4901" filterUnits="userSpaceOnUse" color-interpolation-filters="sRGB">
<feFlood flood-opacity="0" result="BackgroundImageFix"/>
<feColorMatrix in="SourceAlpha" type="matrix" values="0 0 0 0 0 0 0 0 0 0 0 0 0 0 0 0 0 0 127 0" result="hardAlpha"/>
<feOffset dy="2"/>
<feColorMatrix type="matrix" values="0 0 0 0 0 0 0 0 0 0 0 0 0 0 0 0 0 0 0.5 0"/>
<feBlend mode="normal" in2="BackgroundImageFix" result="effect1_dropShadow_99_2700"/>
<feBlend mode="normal" in="SourceGraphic" in2="effect1_dropShadow_99_2700" result="shape"/>
</filter>
<clipPath id="clip0_99_2700">
<rect width="38" height="46" fill="white"/>
</clipPath>
</defs>
</svg>
