<svg width="545" height="539" viewBox="0 0 545 539" fill="none" xmlns="http://www.w3.org/2000/svg">
<path opacity="0.1" d="M182.187 368.416L257.814 528.448C260.572 534.275 266.379 538.07 272.795 538.199C275.926 538.264 279.012 537.434 281.688 535.807C284.364 534.179 286.52 531.821 287.902 529.01L362.261 378.657L529.32 363.48C532.128 363.211 534.822 362.237 537.152 360.646C539.936 358.737 542.116 355.988 543.322 352.679C545.513 346.647 544.065 339.863 539.622 335.191L417.585 206.987L445.848 37.7211C446.35 34.6652 446.011 31.5303 444.867 28.6522C443.724 25.7741 441.82 23.2611 439.358 21.3822C436.914 19.5091 434 18.3478 430.938 18.0266C427.875 17.7055 424.784 18.237 422.005 19.5624L272.529 91.3235L122.324 2.15744C111.109 -4.49858 95.3008 6.34215 97.4692 19.2022L126.552 191.431L5.75699 305.014C3.51918 307.13 1.90961 309.822 1.1061 312.795C0.302605 315.768 0.336429 318.905 1.20385 321.86C2.97174 327.93 7.93878 332.543 14.0873 333.811L182.187 368.416ZM156.037 210.001C158.032 208.116 159.53 205.767 160.398 203.163C161.267 200.559 161.479 197.781 161.016 195.076L136.413 49.3246L263.5 124.768C268.317 127.631 274.223 127.917 279.217 125.5L407.481 63.9221L383.196 209.344C382.3 214.598 383.979 219.992 387.667 223.875L491.647 333.09L349.646 346.008C346.834 346.264 344.134 347.232 341.801 348.822C339.47 350.418 337.592 352.59 336.349 355.126L273.137 482.938L208.72 346.592C207.594 344.206 205.929 342.115 203.856 340.482C201.784 338.85 199.36 337.721 196.777 337.185L52.3721 307.446L156.038 210.006L156.037 210.001Z" fill="black"/>
</svg>
