<svg width="56" height="60" viewBox="0 0 56 60" fill="none" xmlns="http://www.w3.org/2000/svg">
<path d="M46.0717 15.129C42.5583 11.6289 38.0875 9.24699 33.2227 8.28343C28.3578 7.31987 23.3166 7.81775 18.7343 9.71434C14.1519 11.6109 10.2335 14.8214 7.47257 18.9411C4.71168 23.0609 3.23191 27.9057 3.21973 32.865" stroke="white" stroke-width="4.5" stroke-miterlimit="10" stroke-linecap="round"/>
<path d="M44.0497 2.25L46.5457 12.366C46.6606 12.8068 46.685 13.2664 46.6173 13.7169C46.5495 14.1674 46.3911 14.5995 46.1516 14.9871C45.9122 15.3747 45.5966 15.7096 45.2239 15.9717C44.8513 16.2338 44.4294 16.4176 43.9837 16.512L33.8677 19.041" stroke="white" stroke-width="4.5" stroke-linecap="round" stroke-linejoin="round"/>
<path d="M9.92773 44.8711C13.441 48.3722 17.9121 50.755 22.7774 51.7192C27.6428 52.6833 32.6846 52.1857 37.2676 50.289C41.8505 48.3923 45.7695 45.1814 48.5305 41.061C51.2916 36.9406 52.7711 32.0951 52.7827 27.1351" stroke="white" stroke-width="4.5" stroke-miterlimit="10" stroke-linecap="round"/>
<path d="M11.9499 57.7499L9.45387 47.6339C9.33939 47.1928 9.31548 46.7332 9.38358 46.2826C9.45169 45.8321 9.6104 45.4001 9.85012 45.0126C10.0898 44.6251 10.4056 44.2902 10.7784 44.0281C11.1511 43.7661 11.5731 43.5823 12.0189 43.4879L22.1319 40.9589" stroke="white" stroke-width="4.5" stroke-linecap="round" stroke-linejoin="round"/>
</svg>
