<svg width="23" height="15" viewBox="0 0 23 15" fill="none" xmlns="http://www.w3.org/2000/svg">
<path d="M12.2626 12.3501L20.9734 3.6391C21.1751 3.43762 21.2861 3.16867 21.2861 2.88189C21.2861 2.59512 21.1751 2.32617 20.9734 2.12469L20.3321 1.48319C19.9142 1.06575 19.2349 1.06575 18.8177 1.48319L11.5028 8.79804L4.17984 1.47507C3.97821 1.27359 3.70942 1.16235 3.4228 1.16235C3.13586 1.16235 2.86707 1.27359 2.66528 1.47507L2.02409 2.11658C1.82246 2.31821 1.71137 2.587 1.71137 2.87378C1.71137 3.16055 1.82246 3.42951 2.02409 3.63098L10.7429 12.3501C10.9452 12.5521 11.2152 12.663 11.5023 12.6624C11.7905 12.663 12.0604 12.5521 12.2626 12.3501Z" fill="white"/>
</svg>
