<svg width="44" height="36" viewBox="0 0 44 36" fill="none" xmlns="http://www.w3.org/2000/svg">
<g clip-path="url(#clip0_33_566)">
<path d="M12.6402 20.54C12.7777 20.3891 12.8678 20.2009 12.8991 19.9991C12.9305 19.7973 12.9017 19.5907 12.8163 19.4051C12.731 19.2196 12.5929 19.0632 12.4193 18.9556C12.2457 18.848 12.0443 18.7939 11.8402 18.8H9.18016C9.0736 17.1395 9.3084 15.4748 9.87009 13.9085C10.4318 12.3422 11.3084 10.9077 12.446 9.69328C13.5835 8.47891 14.9578 7.51049 16.4841 6.84778C18.0103 6.18506 19.6562 5.8421 21.3202 5.84005C24.5402 5.84005 27.4802 7.10005 29.6602 9.14005L33.4602 4.70005C30.1428 1.65886 25.8005 -0.0194647 21.3002 4.61506e-05C18.9362 -0.00444592 16.5948 0.459892 14.4114 1.36619C12.228 2.2725 10.2461 3.60277 8.58016 5.28005C6.80736 7.04097 5.42334 9.15391 4.51735 11.4826C3.61136 13.8113 3.20353 16.304 3.32015 18.8H1.04015C0.837704 18.7979 0.639036 18.8549 0.468523 18.9641C0.29801 19.0733 0.163067 19.2298 0.0802487 19.4146C-0.00256956 19.5993 -0.0296616 19.8042 0.00229603 20.0041C0.0342537 20.2041 0.123871 20.3903 0.260155 20.54L5.38016 26.42L6.46016 27.64L10.3202 23.22L12.6402 20.54ZM42.3402 17.12L38.5202 12.74L36.1402 10.02L32.7402 13.9L29.9402 17.1C29.7957 17.2501 29.6996 17.4402 29.6644 17.6455C29.6292 17.8508 29.6564 18.062 29.7427 18.2516C29.8289 18.4413 29.97 18.6007 30.1479 18.7092C30.3257 18.8176 30.5321 18.8702 30.7402 18.86H33.4402C33.2133 21.9269 31.8366 24.7949 29.5856 26.8902C27.3346 28.9854 24.3754 30.1533 21.3002 30.16C18.5997 30.1696 15.9737 29.2754 13.8402 27.62L10.0402 32.06C13.2363 34.6294 17.2193 36.0207 21.3202 36C23.6841 36.0045 26.0256 35.5402 28.2089 34.6339C30.3923 33.7276 32.3743 32.3973 34.0402 30.72C37.2165 27.5647 39.0936 23.3325 39.3002 18.86H41.5802C42.4802 18.86 42.9602 17.8 42.3602 17.12H42.3402Z" fill="white"/>
</g>
<defs>
<clipPath id="clip0_33_566">
<rect width="44" height="36" fill="white"/>
</clipPath>
</defs>
</svg>
