<svg width="384" height="362" viewBox="0 0 384 362" fill="none" xmlns="http://www.w3.org/2000/svg">
<path d="M313.419 92.8805C355.062 150.165 339.68 216.186 277.771 265.92C230.786 303.665 158.007 329.3 110.003 272.333C57.2875 209.775 80.1632 103.122 138.003 61.0742C195.843 19.0268 270.751 34.1874 313.419 92.8805Z" fill="url(#paint0_radial_151_4051)"/>
<g style="mix-blend-mode:hard-light" filter="url(#filter0_f_151_4051)">
<path fill-rule="evenodd" clip-rule="evenodd" d="M302.158 90.002C300.896 87.9922 299.547 85.9982 298.11 84.0217C262.331 34.8045 195.384 25.0964 141.162 64.5135C86.9403 103.931 61.2615 198.087 105.935 250.206C106 250.282 106.065 250.358 106.131 250.434C73.6321 196.928 99.3711 112.994 149.771 76.3552C201.767 38.5564 265.465 45.9319 302.158 90.002Z" fill="url(#paint1_linear_151_4051)"/>
</g>
<g style="mix-blend-mode:soft-light" filter="url(#filter1_f_151_4051)">
<path d="M291.082 86.1637C323.693 127.386 308.703 181.707 255.666 228.036C215.414 263.197 154.174 291.469 116.277 251.184C74.6596 206.944 97.2388 119.404 146.64 79.6439C196.042 39.8843 257.67 43.9275 291.082 86.1637Z" fill="url(#paint2_radial_151_4051)"/>
</g>
<g filter="url(#filter2_f_151_4051)">
<path d="M244.265 91.3278C260.84 112.279 245.92 145.764 207.666 178.403C178.634 203.174 136.977 226.02 116.957 206.156C94.9708 184.342 118.015 130.54 153.308 102.135C188.601 73.7302 227.284 69.8614 244.265 91.3278Z" fill="url(#paint3_radial_151_4051)"/>
</g>
<g filter="url(#filter3_f_151_4051)">
<path d="M166.268 117.707C178.287 127.719 176.256 146.665 162.116 166.817C151.385 182.111 133.855 197.274 120.251 188.087C105.312 177.999 108.097 147.624 121.43 129.944C134.763 112.264 153.954 107.448 166.268 117.707Z" fill="url(#paint4_radial_151_4051)"/>
</g>
<g filter="url(#filter4_f_151_4051)">
<path d="M141.096 136.749C148.32 142.767 147.1 154.155 138.6 166.268C132.15 175.461 121.613 184.576 113.435 179.054C104.456 172.99 106.13 154.732 114.144 144.104C122.158 133.477 133.694 130.582 141.096 136.749Z" fill="white"/>
</g>
<path fill-rule="evenodd" clip-rule="evenodd" d="M116.807 283.066C121.351 283.302 127.588 280.763 127.027 264.739C132.641 263.848 142.125 267.067 135.145 287.074C133.268 287.181 129.561 289.103 129.745 295.933C129.746 295.992 129.747 296.05 129.747 296.108C131.472 300.104 131.498 303.752 129.45 305.59C126.25 308.462 119.196 305.821 113.694 299.69C108.193 293.56 106.327 286.262 109.528 283.39C111.177 281.91 113.85 281.894 116.807 283.066Z" fill="#F17502"/>
<g filter="url(#filter5_f_151_4051)">
<path fill-rule="evenodd" clip-rule="evenodd" d="M134.343 269.003C134.841 271.857 135.296 275.07 135.289 276.494C135.261 282.184 126.626 287.144 123.904 288.249C114.625 292.013 113.95 285.792 113.659 283.117C113.656 283.085 113.653 283.053 113.649 283.023C114.304 283.171 114.987 283.395 115.687 283.69C120.364 284.483 127.724 283.242 128.65 268.025C130.421 267.901 132.52 268.137 134.343 269.003Z" fill="url(#paint5_radial_151_4051)"/>
</g>
<ellipse cx="7.69027" cy="14.8846" rx="7.69027" ry="14.8846" transform="matrix(0.740882 -0.671635 0.664195 0.747559 103.396 288.714)" fill="url(#paint6_radial_151_4051)"/>
<g style="mix-blend-mode:hard-light" opacity="0.7" filter="url(#filter6_f_151_4051)">
<path fill-rule="evenodd" clip-rule="evenodd" d="M110.248 289.862C109.759 287.924 110.007 286.33 111.082 285.27C113.501 282.885 118.508 284.509 122.839 289.318C127.17 294.127 129.661 301.983 126.586 304.272C126.345 304.452 126.085 304.585 125.809 304.675C125.877 304.633 125.944 304.587 126.009 304.538C129 302.295 126.689 294.762 122.57 290.186C118.45 285.61 113.642 284.109 111.283 286.437C110.43 287.278 110.1 288.453 110.248 289.862Z" fill="#9C4902"/>
</g>
<g style="mix-blend-mode:hard-light" opacity="0.7" filter="url(#filter7_f_151_4051)">
<path fill-rule="evenodd" clip-rule="evenodd" d="M110.248 289.862C109.759 287.924 110.007 286.33 111.082 285.27C113.501 282.885 118.508 284.509 122.839 289.318C127.17 294.127 129.661 301.983 126.586 304.272C126.345 304.452 126.085 304.585 125.809 304.675C125.877 304.633 125.944 304.587 126.009 304.538C129 302.295 126.689 294.762 122.57 290.186C118.45 285.61 113.642 284.109 111.283 286.437C110.43 287.278 110.1 288.453 110.248 289.862Z" fill="#9C4902"/>
</g>
<path fill-rule="evenodd" clip-rule="evenodd" d="M123.037 291.149C121.034 288.895 114.409 283.774 111.383 286.517C108.357 289.26 113.3 296.629 115.303 298.884C117.272 301.1 124.427 306.95 127.701 303.982C130.975 301.014 125.047 293.411 123.037 291.149ZM129.495 306.001C132.902 302.912 131.108 295.282 125.489 288.958C119.871 282.634 112.554 280.011 109.147 283.099C105.74 286.187 107.534 293.818 113.152 300.142C118.771 306.466 126.088 309.089 129.495 306.001Z" fill="url(#paint7_linear_151_4051)"/>
<g style="mix-blend-mode:hard-light" opacity="0.7" filter="url(#filter8_f_151_4051)">
<path fill-rule="evenodd" clip-rule="evenodd" d="M108.944 292.983C107.289 289.12 107.429 285.764 109.627 283.59C113.131 280.125 119.584 281.594 124.752 287.346C129.919 293.098 133.201 301.876 128.073 305.902C127.628 306.251 127.15 306.508 126.647 306.681C126.826 306.576 127.002 306.456 127.173 306.322C131.979 303.002 129.226 293.479 124.346 288.046C119.466 282.613 113.315 281.282 109.933 284.626C107.93 286.606 107.67 289.572 108.944 292.983Z" fill="#9C4902"/>
</g>
<g filter="url(#filter9_f_151_4051)">
<path d="M115.215 283.072C115.426 283.919 114.49 284.715 112.85 285.171C111.605 285.517 110 285.635 109.668 284.774C109.304 283.827 110.778 282.536 112.267 282.166C113.756 281.797 115 282.203 115.215 283.072Z" fill="white"/>
</g>
<g filter="url(#filter10_f_151_4051)">
<path d="M123.604 283.598C122.599 282.934 124.212 282.004 125.501 279.937C126.479 278.369 126.671 275.883 127.815 276.444C129.073 277.06 128.73 279.823 127.519 281.654C126.308 283.485 124.634 284.279 123.604 283.598Z" fill="white"/>
</g>
<defs>
<filter id="filter0_f_151_4051" x="70.819" y="27.8652" width="243.606" height="234.836" filterUnits="userSpaceOnUse" color-interpolation-filters="sRGB">
<feFlood flood-opacity="0" result="BackgroundImageFix"/>
<feBlend mode="normal" in="SourceGraphic" in2="BackgroundImageFix" result="shape"/>
<feGaussianBlur stdDeviation="6.13349" result="effect1_foregroundBlur_151_4051"/>
</filter>
<filter id="filter1_f_151_4051" x="61.0895" y="18.5726" width="280.61" height="285.816" filterUnits="userSpaceOnUse" color-interpolation-filters="sRGB">
<feFlood flood-opacity="0" result="BackgroundImageFix"/>
<feBlend mode="normal" in="SourceGraphic" in2="BackgroundImageFix" result="shape"/>
<feGaussianBlur stdDeviation="16.7277" result="effect1_foregroundBlur_151_4051"/>
</filter>
<filter id="filter2_f_151_4051" x="74.8962" y="44.1697" width="209.524" height="202.995" filterUnits="userSpaceOnUse" color-interpolation-filters="sRGB">
<feFlood flood-opacity="0" result="BackgroundImageFix"/>
<feBlend mode="normal" in="SourceGraphic" in2="BackgroundImageFix" result="shape"/>
<feGaussianBlur stdDeviation="16.7277" result="effect1_foregroundBlur_151_4051"/>
</filter>
<filter id="filter3_f_151_4051" x="87.8839" y="90.0768" width="108.558" height="123.104" filterUnits="userSpaceOnUse" color-interpolation-filters="sRGB">
<feFlood flood-opacity="0" result="BackgroundImageFix"/>
<feBlend mode="normal" in="SourceGraphic" in2="BackgroundImageFix" result="shape"/>
<feGaussianBlur stdDeviation="11.1518" result="effect1_foregroundBlur_151_4051"/>
</filter>
<filter id="filter4_f_151_4051" x="90.659" y="116.819" width="71.8948" height="80.6394" filterUnits="userSpaceOnUse" color-interpolation-filters="sRGB">
<feFlood flood-opacity="0" result="BackgroundImageFix"/>
<feBlend mode="normal" in="SourceGraphic" in2="BackgroundImageFix" result="shape"/>
<feGaussianBlur stdDeviation="8.36385" result="effect1_foregroundBlur_151_4051"/>
</filter>
<filter id="filter5_f_151_4051" x="111.488" y="265.834" width="25.9614" height="25.7535" filterUnits="userSpaceOnUse" color-interpolation-filters="sRGB">
<feFlood flood-opacity="0" result="BackgroundImageFix"/>
<feBlend mode="normal" in="SourceGraphic" in2="BackgroundImageFix" result="shape"/>
<feGaussianBlur stdDeviation="1.08019" result="effect1_foregroundBlur_151_4051"/>
</filter>
<filter id="filter6_f_151_4051" x="107.847" y="282.023" width="22.2661" height="24.8124" filterUnits="userSpaceOnUse" color-interpolation-filters="sRGB">
<feFlood flood-opacity="0" result="BackgroundImageFix"/>
<feBlend mode="normal" in="SourceGraphic" in2="BackgroundImageFix" result="shape"/>
<feGaussianBlur stdDeviation="1.08019" result="effect1_foregroundBlur_151_4051"/>
</filter>
<filter id="filter7_f_151_4051" x="107.847" y="282.023" width="22.2661" height="24.8124" filterUnits="userSpaceOnUse" color-interpolation-filters="sRGB">
<feFlood flood-opacity="0" result="BackgroundImageFix"/>
<feBlend mode="normal" in="SourceGraphic" in2="BackgroundImageFix" result="shape"/>
<feGaussianBlur stdDeviation="1.08019" result="effect1_foregroundBlur_151_4051"/>
</filter>
<filter id="filter8_f_151_4051" x="106.744" y="280.656" width="24.9827" height="27.1056" filterUnits="userSpaceOnUse" color-interpolation-filters="sRGB">
<feFlood flood-opacity="0" result="BackgroundImageFix"/>
<feBlend mode="normal" in="SourceGraphic" in2="BackgroundImageFix" result="shape"/>
<feGaussianBlur stdDeviation="0.540097" result="effect1_foregroundBlur_151_4051"/>
</filter>
<filter id="filter9_f_151_4051" x="107.867" y="280.286" width="9.12056" height="6.88948" filterUnits="userSpaceOnUse" color-interpolation-filters="sRGB">
<feFlood flood-opacity="0" result="BackgroundImageFix"/>
<feBlend mode="normal" in="SourceGraphic" in2="BackgroundImageFix" result="shape"/>
<feGaussianBlur stdDeviation="0.871937" result="effect1_foregroundBlur_151_4051"/>
</filter>
<filter id="filter10_f_151_4051" x="120.439" y="273.514" width="11.018" height="13.1761" filterUnits="userSpaceOnUse" color-interpolation-filters="sRGB">
<feFlood flood-opacity="0" result="BackgroundImageFix"/>
<feBlend mode="normal" in="SourceGraphic" in2="BackgroundImageFix" result="shape"/>
<feGaussianBlur stdDeviation="1.42492" result="effect1_foregroundBlur_151_4051"/>
</filter>
<radialGradient id="paint0_radial_151_4051" cx="0" cy="0" r="1" gradientUnits="userSpaceOnUse" gradientTransform="translate(127.943 97.0951) rotate(49.5793) scale(225.57 246.078)">
<stop offset="0.115" stop-color="#EFC400"/>
<stop offset="0.374129" stop-color="#FEDB60"/>
<stop offset="0.565" stop-color="#F7A833"/>
<stop offset="0.746462" stop-color="#EF7002"/>
</radialGradient>
<linearGradient id="paint1_linear_151_4051" x1="273.571" y1="50.266" x2="68.5747" y2="199.29" gradientUnits="userSpaceOnUse">
<stop stop-color="white" stop-opacity="0"/>
<stop offset="0.525" stop-color="#FFEEA6"/>
<stop offset="1" stop-color="white" stop-opacity="0"/>
</linearGradient>
<radialGradient id="paint2_radial_151_4051" cx="0" cy="0" r="1" gradientUnits="userSpaceOnUse" gradientTransform="translate(138.484 166.815) rotate(23.7494) scale(88.3989 118.031)">
<stop offset="0.149395" stop-color="white"/>
<stop offset="1" stop-color="#D4AA00"/>
</radialGradient>
<radialGradient id="paint3_radial_151_4051" cx="0" cy="0" r="1" gradientUnits="userSpaceOnUse" gradientTransform="translate(139.448 154.258) rotate(14.9406) scale(49.4399 76.6292)">
<stop stop-color="#FDEFB4"/>
<stop offset="1" stop-color="#FFEDA5"/>
</radialGradient>
<radialGradient id="paint4_radial_151_4051" cx="0" cy="0" r="1" gradientUnits="userSpaceOnUse" gradientTransform="translate(123.073 158.769) rotate(7.41771) scale(39.0202 70.6512)">
<stop offset="0.512233" stop-color="white"/>
<stop offset="1" stop-color="#FFEDA5" stop-opacity="0"/>
</radialGradient>
<radialGradient id="paint5_radial_151_4051" cx="0" cy="0" r="1" gradientUnits="userSpaceOnUse" gradientTransform="translate(120.453 278.641) rotate(28.5099) scale(17.0794 24.7606)">
<stop offset="0.175" stop-color="white"/>
<stop offset="0.441814" stop-color="#FFDF61"/>
<stop offset="1" stop-color="#EF7003" stop-opacity="0"/>
</radialGradient>
<radialGradient id="paint6_radial_151_4051" cx="0" cy="0" r="1" gradientUnits="userSpaceOnUse" gradientTransform="translate(3.47512 20.1426) rotate(9.02861) scale(7.11888 14.3793)">
<stop stop-color="#FBBD40"/>
<stop offset="1" stop-color="#D0690A"/>
</radialGradient>
<linearGradient id="paint7_linear_151_4051" x1="109.147" y1="283.099" x2="124.562" y2="307.527" gradientUnits="userSpaceOnUse">
<stop stop-color="#FFF6CD"/>
<stop offset="0.28" stop-color="#FFBB26"/>
<stop offset="1" stop-color="#FFA908"/>
</linearGradient>
</defs>
</svg>
