<svg width="690" height="704" viewBox="0 0 690 704" fill="none" xmlns="http://www.w3.org/2000/svg">
<path d="M-37.1132 711.038L-39.8941 711.161L-39.4708 713.916L-3.90664 945.38L-3.58085 947.5H-1.43563H688.33H690.13L690.701 945.792C715.547 871.419 731.723 764.076 741.097 648.436C750.475 532.749 753.059 408.581 750.655 300.461C748.251 192.389 740.861 100.188 730.241 48.5044C727.586 35.5814 724.708 25.0826 721.611 17.4667C720.063 13.661 718.426 10.4863 716.678 8.06686C714.951 5.67786 712.955 3.80207 710.614 2.96505C708.123 2.07414 705.622 2.49322 703.336 3.95153C701.152 5.3445 699.15 7.67971 697.268 10.7247C693.494 16.8302 689.722 26.5893 685.922 40.1955C619.532 277.926 442.42 445.502 279.809 553.794C198.527 607.924 120.94 647.193 62.7643 672.967C33.6777 685.854 9.45288 695.362 -7.9435 701.666C-16.643 704.818 -23.6254 707.165 -28.6475 708.73C-31.1606 709.514 -33.1675 710.097 -34.6454 710.486C-35.3854 710.681 -35.9753 710.823 -36.4198 710.917C-36.6419 710.964 -36.8145 710.995 -36.943 711.016C-37.0626 711.035 -37.1132 711.038 -37.1132 711.038Z" fill="#E50539" fill-opacity="0.5" stroke="#E50539" stroke-width="5"/>
</svg>
