<svg width="1066" height="429" viewBox="0 0 1066 429" fill="none" xmlns="http://www.w3.org/2000/svg">
<g clip-path="url(#clip0_1_538)">
<mask id="mask0_1_538" style="mask-type:alpha" maskUnits="userSpaceOnUse" x="-541" y="-49" width="1607" height="478">
<rect x="-541" y="-49" width="1607" height="478" fill="#D9D9D9"/>
</mask>
<g mask="url(#mask0_1_538)">
<path d="M-489.952 544.571L-493.469 544.645V548.164V1214.72V1218.32H-489.876H994.426H996.303L997.375 1216.78C1050.92 1139.89 1109.62 1010.05 1159.59 863.332C1209.57 716.549 1250.91 552.552 1269.59 407.185C1278.92 334.503 1282.61 266.391 1278.85 207.372C1275.09 148.409 1263.88 98.2197 1243.19 61.6011C1222.42 24.8233 1192.02 1.67801 1150.32 -2.66992C1108.88 -6.99018 1056.84 7.31195 992.645 43.9597C673.481 226.176 310.603 351.185 23.4941 430.727C-120.044 470.494 -244.604 498.885 -335.238 517.375C-380.556 526.619 -417.384 533.387 -443.856 537.863C-457.093 540.101 -467.731 541.764 -475.539 542.877C-483.449 544.005 -488.242 544.535 -489.952 544.571Z" fill="#E50539" fill-opacity="0.5" stroke="#E50539" stroke-width="7.18694"/>
</g>
</g>
<defs>
<clipPath id="clip0_1_538">
<rect width="1066" height="429" fill="white"/>
</clipPath>
</defs>
</svg>
