<svg width="269" height="262" viewBox="0 0 269 262" fill="none" xmlns="http://www.w3.org/2000/svg">
<g opacity="0.9">
<path d="M219.749 73.0102C248.872 113.071 238.115 159.243 194.819 194.024C161.961 220.42 111.064 238.348 77.4928 198.509C40.6267 154.759 56.6246 80.1722 97.0743 50.7668C137.524 21.3615 189.91 31.9639 219.749 73.0102Z" fill="url(#paint0_radial_151_4095)"/>
<g style="mix-blend-mode:hard-light" filter="url(#filter0_f_151_4095)">
<path fill-rule="evenodd" clip-rule="evenodd" d="M211.872 70.9986C210.99 69.5925 210.046 68.1975 209.041 66.8148C184.019 32.3953 137.2 25.6061 99.2807 53.1719C61.3613 80.7378 43.4031 146.585 74.6447 183.034C74.6901 183.086 74.7354 183.139 74.7808 183.192C52.0543 145.773 70.0545 87.0757 105.301 61.4531C141.664 35.0185 186.211 40.1771 211.872 70.9986Z" fill="url(#paint1_linear_151_4095)"/>
</g>
<g style="mix-blend-mode:soft-light" filter="url(#filter1_f_151_4095)">
<path d="M204.13 68.3129C226.936 97.1413 216.453 135.13 179.362 167.53C151.213 192.119 108.385 211.891 81.8822 183.718C52.7776 152.779 68.5681 91.5588 103.117 63.7534C137.665 35.9479 180.764 38.7755 204.13 68.3129Z" fill="url(#paint2_radial_151_4095)"/>
</g>
<g filter="url(#filter2_f_151_4095)">
<path d="M171.39 71.9243C182.981 86.5763 172.546 109.994 145.794 132.82C125.491 150.143 96.3589 166.12 82.3577 152.228C66.9822 136.973 83.0976 99.347 107.78 79.4823C132.462 59.6176 159.514 56.9121 171.39 71.9243Z" fill="url(#paint3_radial_151_4095)"/>
</g>
<g filter="url(#filter3_f_151_4095)">
<path d="M116.839 90.3723C125.245 97.3743 123.825 110.624 113.936 124.717C106.431 135.412 94.1718 146.016 84.658 139.592C74.2105 132.537 76.1585 111.295 85.4826 98.9302C94.8068 86.5659 108.228 83.1981 116.839 90.3723Z" fill="url(#paint4_radial_151_4095)"/>
</g>
<g filter="url(#filter4_f_151_4095)">
<path d="M99.2346 103.689C104.287 107.898 103.433 115.862 97.4894 124.333C92.9782 130.762 85.6093 137.136 79.8906 133.274C73.6107 129.034 74.7816 116.265 80.3863 108.833C85.991 101.401 94.0581 99.3766 99.2346 103.689Z" fill="white"/>
</g>
<path fill-rule="evenodd" clip-rule="evenodd" d="M82.254 206.014C85.4321 206.181 89.7958 204.407 89.4034 193.198C93.3296 192.575 99.9619 194.826 95.0804 208.818C93.7681 208.893 91.1756 210.237 91.3039 215.013C91.305 215.056 91.3056 215.098 91.3057 215.14C92.5102 217.932 92.5275 220.482 91.0964 221.767C88.8582 223.775 83.9249 221.928 80.0775 217.641C76.2302 213.354 74.9256 208.25 77.1638 206.242C78.3172 205.206 80.1865 205.195 82.254 206.014Z" fill="#F17502"/>
<g filter="url(#filter5_f_151_4095)">
<path fill-rule="evenodd" clip-rule="evenodd" d="M94.5251 196.177C94.8734 198.173 95.192 200.422 95.1871 201.418C95.1675 205.398 89.1289 208.867 87.2252 209.639C80.7356 212.271 80.2637 207.921 80.0607 206.05C80.0583 206.028 80.0559 206.006 80.0536 205.984C80.5107 206.087 80.9871 206.244 81.4751 206.449C84.7453 207.007 89.9016 206.148 90.5498 195.496C91.7862 195.409 93.2515 195.573 94.5251 196.177Z" fill="url(#paint5_radial_151_4095)"/>
</g>
<ellipse cx="5.3781" cy="10.4094" rx="5.3781" ry="10.4094" transform="matrix(0.740882 -0.671635 0.664195 0.747559 72.8809 209.965)" fill="url(#paint6_radial_151_4095)"/>
<g style="mix-blend-mode:hard-light" opacity="0.7" filter="url(#filter6_f_151_4095)">
<path fill-rule="evenodd" clip-rule="evenodd" d="M77.6691 210.759C77.3296 209.408 77.5043 208.296 78.2545 207.556C79.9463 205.887 83.4478 207.023 86.4766 210.387C89.5053 213.75 91.2475 219.244 89.0971 220.845C88.9272 220.971 88.7446 221.064 88.5511 221.127C88.5991 221.097 88.6462 221.065 88.6923 221.03C90.7839 219.462 89.1679 214.194 86.287 210.993C83.4061 207.793 80.0436 206.744 78.3934 208.372C77.7988 208.958 77.5677 209.777 77.6691 210.759Z" fill="#9C4902"/>
</g>
<g style="mix-blend-mode:hard-light" opacity="0.7" filter="url(#filter7_f_151_4095)">
<path fill-rule="evenodd" clip-rule="evenodd" d="M77.6691 210.759C77.3296 209.408 77.5043 208.296 78.2545 207.556C79.9463 205.887 83.4478 207.023 86.4766 210.387C89.5053 213.75 91.2475 219.244 89.0971 220.845C88.9272 220.971 88.7446 221.064 88.5511 221.127C88.5991 221.097 88.6462 221.065 88.6923 221.03C90.7839 219.462 89.1679 214.194 86.287 210.993C83.4061 207.793 80.0436 206.744 78.3934 208.372C77.7988 208.958 77.5677 209.777 77.6691 210.759Z" fill="#9C4902"/>
</g>
<path fill-rule="evenodd" clip-rule="evenodd" d="M86.6157 211.668C85.2146 210.091 80.5816 206.51 78.4656 208.428C76.3496 210.346 79.8061 215.5 81.2072 217.077C82.5839 218.626 87.5879 222.717 89.8775 220.642C92.1671 218.566 88.021 213.249 86.6157 211.668ZM91.1319 222.054C93.5143 219.894 92.2602 214.558 88.3307 210.135C84.4011 205.712 79.2842 203.878 76.9018 206.038C74.5193 208.197 75.7734 213.534 79.7029 217.956C83.6325 222.379 88.7494 224.213 91.1319 222.054Z" fill="url(#paint7_linear_151_4095)"/>
<g style="mix-blend-mode:hard-light" opacity="0.7" filter="url(#filter8_f_151_4095)">
<path fill-rule="evenodd" clip-rule="evenodd" d="M76.7585 212.951C75.6006 210.249 75.6979 207.901 77.2358 206.381C79.6862 203.958 84.1992 204.985 87.8128 209.007C91.4264 213.03 93.7218 219.169 90.1359 221.984C89.8251 222.228 89.4916 222.407 89.1403 222.529C89.2652 222.455 89.3872 222.372 89.5062 222.278C92.8675 219.956 90.9425 213.297 87.5296 209.497C84.1168 205.698 79.8151 204.767 77.45 207.106C76.0491 208.491 75.867 210.565 76.7585 212.951Z" fill="#9C4902"/>
</g>
<g filter="url(#filter9_f_151_4095)">
<path d="M81.1459 206.018C81.2931 206.611 80.6388 207.168 79.4917 207.487C78.6212 207.728 77.4987 207.811 77.2666 207.209C77.0118 206.547 78.0431 205.644 79.0844 205.385C80.1256 205.127 80.9951 205.411 81.1459 206.018Z" fill="white"/>
</g>
<g filter="url(#filter10_f_151_4095)">
<path d="M87.0151 206.387C86.3123 205.922 87.44 205.272 88.3415 203.826C89.0257 202.729 89.1596 200.991 89.9602 201.384C90.8393 201.814 90.6 203.747 89.753 205.027C88.9061 206.307 87.7352 206.863 87.0151 206.387Z" fill="white"/>
</g>
</g>
<defs>
<filter id="filter0_f_151_4095" x="50.0872" y="27.5424" width="170.365" height="164.228" filterUnits="userSpaceOnUse" color-interpolation-filters="sRGB">
<feFlood flood-opacity="0" result="BackgroundImageFix"/>
<feBlend mode="normal" in="SourceGraphic" in2="BackgroundImageFix" result="shape"/>
<feGaussianBlur stdDeviation="4.28939" result="effect1_foregroundBlur_151_4095"/>
</filter>
<filter id="filter1_f_151_4095" x="43.2869" y="21.0439" width="196.241" height="199.882" filterUnits="userSpaceOnUse" color-interpolation-filters="sRGB">
<feFlood flood-opacity="0" result="BackgroundImageFix"/>
<feBlend mode="normal" in="SourceGraphic" in2="BackgroundImageFix" result="shape"/>
<feGaussianBlur stdDeviation="11.6983" result="effect1_foregroundBlur_151_4095"/>
</filter>
<filter id="filter2_f_151_4095" x="52.9432" y="38.9449" width="146.528" height="141.962" filterUnits="userSpaceOnUse" color-interpolation-filters="sRGB">
<feFlood flood-opacity="0" result="BackgroundImageFix"/>
<feBlend mode="normal" in="SourceGraphic" in2="BackgroundImageFix" result="shape"/>
<feGaussianBlur stdDeviation="11.6983" result="effect1_foregroundBlur_151_4095"/>
</filter>
<filter id="filter3_f_151_4095" x="62.0214" y="71.0494" width="75.9201" height="86.0917" filterUnits="userSpaceOnUse" color-interpolation-filters="sRGB">
<feFlood flood-opacity="0" result="BackgroundImageFix"/>
<feBlend mode="normal" in="SourceGraphic" in2="BackgroundImageFix" result="shape"/>
<feGaussianBlur stdDeviation="7.79888" result="effect1_foregroundBlur_151_4095"/>
</filter>
<filter id="filter4_f_151_4095" x="63.9618" y="89.7516" width="50.2795" height="56.3942" filterUnits="userSpaceOnUse" color-interpolation-filters="sRGB">
<feFlood flood-opacity="0" result="BackgroundImageFix"/>
<feBlend mode="normal" in="SourceGraphic" in2="BackgroundImageFix" result="shape"/>
<feGaussianBlur stdDeviation="5.84916" result="effect1_foregroundBlur_151_4095"/>
</filter>
<filter id="filter5_f_151_4095" x="78.5419" y="193.963" width="18.1565" height="18.0106" filterUnits="userSpaceOnUse" color-interpolation-filters="sRGB">
<feFlood flood-opacity="0" result="BackgroundImageFix"/>
<feBlend mode="normal" in="SourceGraphic" in2="BackgroundImageFix" result="shape"/>
<feGaussianBlur stdDeviation="0.755422" result="effect1_foregroundBlur_151_4095"/>
</filter>
<filter id="filter6_f_151_4095" x="75.9931" y="205.285" width="15.5705" height="17.3531" filterUnits="userSpaceOnUse" color-interpolation-filters="sRGB">
<feFlood flood-opacity="0" result="BackgroundImageFix"/>
<feBlend mode="normal" in="SourceGraphic" in2="BackgroundImageFix" result="shape"/>
<feGaussianBlur stdDeviation="0.755422" result="effect1_foregroundBlur_151_4095"/>
</filter>
<filter id="filter7_f_151_4095" x="75.9931" y="205.285" width="15.5705" height="17.3531" filterUnits="userSpaceOnUse" color-interpolation-filters="sRGB">
<feFlood flood-opacity="0" result="BackgroundImageFix"/>
<feBlend mode="normal" in="SourceGraphic" in2="BackgroundImageFix" result="shape"/>
<feGaussianBlur stdDeviation="0.755422" result="effect1_foregroundBlur_151_4095"/>
</filter>
<filter id="filter8_f_151_4095" x="75.2192" y="204.329" width="17.4718" height="18.9553" filterUnits="userSpaceOnUse" color-interpolation-filters="sRGB">
<feFlood flood-opacity="0" result="BackgroundImageFix"/>
<feBlend mode="normal" in="SourceGraphic" in2="BackgroundImageFix" result="shape"/>
<feGaussianBlur stdDeviation="0.377711" result="effect1_foregroundBlur_151_4095"/>
</filter>
<filter id="filter9_f_151_4095" x="76.007" y="204.07" width="6.37857" height="4.81808" filterUnits="userSpaceOnUse" color-interpolation-filters="sRGB">
<feFlood flood-opacity="0" result="BackgroundImageFix"/>
<feBlend mode="normal" in="SourceGraphic" in2="BackgroundImageFix" result="shape"/>
<feGaussianBlur stdDeviation="0.609779" result="effect1_foregroundBlur_151_4095"/>
</filter>
<filter id="filter10_f_151_4095" x="84.8019" y="199.334" width="7.70475" height="9.21458" filterUnits="userSpaceOnUse" color-interpolation-filters="sRGB">
<feFlood flood-opacity="0" result="BackgroundImageFix"/>
<feBlend mode="normal" in="SourceGraphic" in2="BackgroundImageFix" result="shape"/>
<feGaussianBlur stdDeviation="0.9965" result="effect1_foregroundBlur_151_4095"/>
</filter>
<radialGradient id="paint0_radial_151_4095" cx="0" cy="0" r="1" gradientUnits="userSpaceOnUse" gradientTransform="translate(90.0387 75.9576) rotate(49.5793) scale(157.75 172.092)">
<stop offset="0.115" stop-color="#EFC400"/>
<stop offset="0.374129" stop-color="#FF8800"/>
<stop offset="0.565" stop-color="#E16902"/>
<stop offset="0.746462" stop-color="#FF0000"/>
</radialGradient>
<linearGradient id="paint1_linear_151_4095" x1="191.879" y1="43.2074" x2="48.5169" y2="147.426" gradientUnits="userSpaceOnUse">
<stop stop-color="white" stop-opacity="0"/>
<stop offset="0.525" stop-color="#FFEEA6"/>
<stop offset="1" stop-color="white" stop-opacity="0"/>
</linearGradient>
<radialGradient id="paint2_radial_151_4095" cx="0" cy="0" r="1" gradientUnits="userSpaceOnUse" gradientTransform="translate(97.4124 124.716) rotate(23.7494) scale(61.8208 82.544)">
<stop offset="0.149395" stop-color="white"/>
<stop offset="1" stop-color="#D4AA00"/>
</radialGradient>
<radialGradient id="paint3_radial_151_4095" cx="0" cy="0" r="1" gradientUnits="userSpaceOnUse" gradientTransform="translate(98.0869 115.934) rotate(14.9406) scale(34.5752 53.5898)">
<stop stop-color="#FDEFB4"/>
<stop offset="1" stop-color="#FFEDA5"/>
</radialGradient>
<radialGradient id="paint4_radial_151_4095" cx="0" cy="0" r="1" gradientUnits="userSpaceOnUse" gradientTransform="translate(86.6316 119.088) rotate(7.41771) scale(27.2883 49.4091)">
<stop offset="0.512233" stop-color="white"/>
<stop offset="1" stop-color="#FFEDA5" stop-opacity="0"/>
</radialGradient>
<radialGradient id="paint5_radial_151_4095" cx="0" cy="0" r="1" gradientUnits="userSpaceOnUse" gradientTransform="translate(84.8119 202.921) rotate(28.5067) scale(11.9438 17.3154)">
<stop offset="0.175" stop-color="white"/>
<stop offset="0.441814" stop-color="#FFDF61"/>
<stop offset="1" stop-color="#EF7003" stop-opacity="0"/>
</radialGradient>
<radialGradient id="paint6_radial_151_4095" cx="0" cy="0" r="1" gradientUnits="userSpaceOnUse" gradientTransform="translate(2.43028 14.0865) rotate(9.02861) scale(4.97851 10.056)">
<stop stop-color="#FBBD40"/>
<stop offset="1" stop-color="#D0690A"/>
</radialGradient>
<linearGradient id="paint7_linear_151_4095" x1="76.9018" y1="206.038" x2="87.6822" y2="223.121" gradientUnits="userSpaceOnUse">
<stop stop-color="#FFF6CD"/>
<stop offset="0.28" stop-color="#FFBB26"/>
<stop offset="1" stop-color="#FFA908"/>
</linearGradient>
</defs>
</svg>
