<svg width="176" height="171" viewBox="0 0 176 171" fill="none" xmlns="http://www.w3.org/2000/svg">
<g opacity="0.7">
<path d="M143.537 47.7785C162.617 74.0243 155.57 104.273 127.205 127.059C105.678 144.353 72.3332 156.098 50.3395 129.998C26.187 101.335 36.6679 52.4706 63.1681 33.206C89.6684 13.9413 123.989 20.8874 143.537 47.7785Z" fill="url(#paint0_radial_151_4139)"/>
<g style="mix-blend-mode:hard-light" filter="url(#filter0_f_151_4139)">
<path fill-rule="evenodd" clip-rule="evenodd" d="M138.386 46.4651C137.807 45.5424 137.187 44.627 136.528 43.7196C120.135 21.17 89.4622 16.7221 64.6197 34.7816C39.7771 52.8411 28.012 95.9805 48.4796 119.859C48.5083 119.893 48.537 119.926 48.5658 119.959C33.6801 95.4445 45.4727 56.9926 68.5628 40.2071C92.3876 22.8874 121.575 26.2688 138.386 46.4651Z" fill="url(#paint1_linear_151_4139)"/>
</g>
<g style="mix-blend-mode:soft-light" filter="url(#filter1_f_151_4139)">
<path d="M133.306 44.7012C148.247 63.5879 141.379 88.476 117.079 109.702C98.6369 125.812 70.5791 138.765 53.2158 120.308C34.1482 100.039 44.4932 59.9306 67.1273 41.7141C89.7614 23.4976 117.997 25.3501 133.306 44.7012Z" fill="url(#paint2_radial_151_4139)"/>
</g>
<g filter="url(#filter2_f_151_4139)">
<path d="M111.855 47.0671C119.449 56.6662 112.613 72.0079 95.0865 86.962C81.785 98.3113 62.6995 108.778 53.5267 99.6774C43.4536 89.6831 54.0114 65.0328 70.1816 52.0187C86.3518 39.0045 104.075 37.232 111.855 47.0671Z" fill="url(#paint3_radial_151_4139)"/>
</g>
<g filter="url(#filter3_f_151_4139)">
<path d="M76.117 59.1532C81.6236 63.7405 80.6934 72.4206 74.2149 81.6536C69.2981 88.6608 61.2665 95.6079 55.0336 91.3989C48.189 86.7768 49.4653 72.8602 55.5739 64.7598C61.6825 56.6595 70.475 54.4531 76.117 59.1532Z" fill="url(#paint4_radial_151_4139)"/>
</g>
<g filter="url(#filter4_f_151_4139)">
<path d="M64.5849 67.8775C67.8948 70.6349 67.3357 75.8524 63.4415 81.4023C60.486 85.6143 55.6583 89.7901 51.9118 87.2601C47.7976 84.4818 48.5647 76.1167 52.2366 71.2476C55.9084 66.3785 61.1935 65.0523 64.5849 67.8775Z" fill="white"/>
</g>
<path fill-rule="evenodd" clip-rule="evenodd" d="M53.4592 134.915C55.5411 135.023 58.3984 133.86 58.1414 126.519C60.7137 126.11 65.0587 127.585 61.8607 136.752C61.0009 136.801 59.3024 137.681 59.3865 140.81C59.3872 140.837 59.3876 140.864 59.3877 140.89C60.1782 142.721 60.1902 144.393 59.252 145.235C57.7857 146.551 54.5537 145.341 52.0331 142.532C49.5126 139.723 48.6579 136.38 50.1242 135.064C50.8799 134.386 52.1046 134.378 53.4592 134.915Z" fill="#F17502"/>
<g filter="url(#filter5_f_151_4139)">
<path fill-rule="evenodd" clip-rule="evenodd" d="M61.4965 128.473C61.7245 129.78 61.9329 131.252 61.9297 131.904C61.9169 134.511 57.9607 136.784 56.7136 137.29C52.462 139.014 52.1528 136.164 52.0198 134.938C52.0183 134.924 52.0168 134.91 52.0153 134.896C52.3135 134.964 52.6242 135.066 52.9424 135.2C55.085 135.565 58.4617 135.001 58.8862 128.024C59.6982 127.967 60.6608 128.075 61.4965 128.473Z" fill="url(#paint5_radial_151_4139)"/>
</g>
<ellipse cx="3.52341" cy="6.81961" rx="3.52341" ry="6.81961" transform="matrix(0.740882 -0.671635 0.664195 0.747559 47.3203 137.503)" fill="url(#paint6_radial_151_4139)"/>
<g style="mix-blend-mode:hard-light" opacity="0.7" filter="url(#filter6_f_151_4139)">
<path fill-rule="evenodd" clip-rule="evenodd" d="M50.4624 138.051C50.2308 137.153 50.3425 136.415 50.839 135.925C51.9473 134.832 54.2413 135.576 56.2256 137.78C58.2099 139.983 59.3513 143.582 57.9424 144.631C57.8336 144.712 57.7168 144.772 57.5933 144.813C57.6231 144.794 57.6525 144.774 57.6812 144.753C59.0515 143.725 57.9928 140.274 56.1054 138.177C54.218 136.081 52.0151 135.393 50.934 136.46C50.5389 136.849 50.3888 137.395 50.4624 138.051Z" fill="#9C4902"/>
</g>
<g style="mix-blend-mode:hard-light" opacity="0.7" filter="url(#filter7_f_151_4139)">
<path fill-rule="evenodd" clip-rule="evenodd" d="M50.4624 138.051C50.2308 137.153 50.3425 136.415 50.839 135.925C51.9473 134.832 54.2413 135.576 56.2256 137.78C58.2099 139.983 59.3513 143.582 57.9424 144.631C57.8336 144.712 57.7168 144.772 57.5933 144.813C57.6231 144.794 57.6525 144.774 57.6812 144.753C59.0515 143.725 57.9928 140.274 56.1054 138.177C54.218 136.081 52.0151 135.393 50.934 136.46C50.5389 136.849 50.3888 137.395 50.4624 138.051Z" fill="#9C4902"/>
</g>
<path fill-rule="evenodd" clip-rule="evenodd" d="M56.3191 138.619C55.4012 137.586 52.3659 135.24 50.9796 136.496C49.5933 137.753 51.8578 141.129 52.7758 142.163C53.6777 143.178 56.956 145.858 58.456 144.498C59.956 143.138 57.2397 139.655 56.3191 138.619ZM59.2778 145.423C60.8387 144.008 60.017 140.512 57.4426 137.615C54.8682 134.717 51.516 133.515 49.9551 134.93C48.3942 136.345 49.2159 139.841 51.7903 142.739C54.3647 145.636 57.7169 146.838 59.2778 145.423Z" fill="url(#paint7_linear_151_4139)"/>
<g style="mix-blend-mode:hard-light" opacity="0.7" filter="url(#filter8_f_151_4139)">
<path fill-rule="evenodd" clip-rule="evenodd" d="M49.8455 139.417C49.106 137.665 49.1767 136.143 50.1762 135.155C51.7816 133.568 54.7382 134.241 57.1057 136.876C59.4731 139.512 60.9769 143.533 58.6276 145.378C58.4221 145.539 58.2015 145.657 57.969 145.737C58.0522 145.688 58.1335 145.633 58.2127 145.57C60.4148 144.049 59.1536 139.686 56.9177 137.197C54.6818 134.708 51.8637 134.098 50.3142 135.63C49.4047 136.529 49.2793 137.872 49.8455 139.417Z" fill="#9C4902"/>
</g>
<g filter="url(#filter9_f_151_4139)">
<path d="M52.7369 134.917C52.8334 135.306 52.4047 135.67 51.6532 135.879C51.0829 136.038 50.3475 136.092 50.1955 135.697C50.0286 135.264 50.7042 134.672 51.3864 134.503C52.0685 134.333 52.6382 134.52 52.7369 134.917Z" fill="white"/>
</g>
<g filter="url(#filter10_f_151_4139)">
<path d="M56.5819 135.159C56.1215 134.854 56.8603 134.428 57.4509 133.482C57.8991 132.763 57.9869 131.624 58.5113 131.881C59.0873 132.163 58.9305 133.429 58.3756 134.268C57.8208 135.107 57.0537 135.471 56.5819 135.159Z" fill="white"/>
</g>
</g>
<defs>
<filter id="filter0_f_151_4139" x="32.3914" y="17.9907" width="111.614" height="107.589" filterUnits="userSpaceOnUse" color-interpolation-filters="sRGB">
<feFlood flood-opacity="0" result="BackgroundImageFix"/>
<feBlend mode="normal" in="SourceGraphic" in2="BackgroundImageFix" result="shape"/>
<feGaussianBlur stdDeviation="2.81015" result="effect1_foregroundBlur_151_4139"/>
</filter>
<filter id="filter1_f_151_4139" x="27.9317" y="13.7334" width="128.564" height="130.951" filterUnits="userSpaceOnUse" color-interpolation-filters="sRGB">
<feFlood flood-opacity="0" result="BackgroundImageFix"/>
<feBlend mode="normal" in="SourceGraphic" in2="BackgroundImageFix" result="shape"/>
<feGaussianBlur stdDeviation="7.66404" result="effect1_foregroundBlur_151_4139"/>
</filter>
<filter id="filter2_f_151_4139" x="34.2559" y="25.4609" width="95.996" height="93.0051" filterUnits="userSpaceOnUse" color-interpolation-filters="sRGB">
<feFlood flood-opacity="0" result="BackgroundImageFix"/>
<feBlend mode="normal" in="SourceGraphic" in2="BackgroundImageFix" result="shape"/>
<feGaussianBlur stdDeviation="7.66404" result="effect1_foregroundBlur_151_4139"/>
</filter>
<filter id="filter3_f_151_4139" x="40.2031" y="46.494" width="49.7382" height="56.4021" filterUnits="userSpaceOnUse" color-interpolation-filters="sRGB">
<feFlood flood-opacity="0" result="BackgroundImageFix"/>
<feBlend mode="normal" in="SourceGraphic" in2="BackgroundImageFix" result="shape"/>
<feGaussianBlur stdDeviation="5.10936" result="effect1_foregroundBlur_151_4139"/>
</filter>
<filter id="filter4_f_151_4139" x="41.4766" y="58.7465" width="32.9394" height="36.9461" filterUnits="userSpaceOnUse" color-interpolation-filters="sRGB">
<feFlood flood-opacity="0" result="BackgroundImageFix"/>
<feBlend mode="normal" in="SourceGraphic" in2="BackgroundImageFix" result="shape"/>
<feGaussianBlur stdDeviation="3.83202" result="effect1_foregroundBlur_151_4139"/>
</filter>
<filter id="filter5_f_151_4139" x="51.0258" y="127.02" width="11.8937" height="11.7995" filterUnits="userSpaceOnUse" color-interpolation-filters="sRGB">
<feFlood flood-opacity="0" result="BackgroundImageFix"/>
<feBlend mode="normal" in="SourceGraphic" in2="BackgroundImageFix" result="shape"/>
<feGaussianBlur stdDeviation="0.494907" result="effect1_foregroundBlur_151_4139"/>
</filter>
<filter id="filter6_f_151_4139" x="49.3578" y="134.437" width="10.2003" height="11.3659" filterUnits="userSpaceOnUse" color-interpolation-filters="sRGB">
<feFlood flood-opacity="0" result="BackgroundImageFix"/>
<feBlend mode="normal" in="SourceGraphic" in2="BackgroundImageFix" result="shape"/>
<feGaussianBlur stdDeviation="0.494907" result="effect1_foregroundBlur_151_4139"/>
</filter>
<filter id="filter7_f_151_4139" x="49.3578" y="134.437" width="10.2003" height="11.3659" filterUnits="userSpaceOnUse" color-interpolation-filters="sRGB">
<feFlood flood-opacity="0" result="BackgroundImageFix"/>
<feBlend mode="normal" in="SourceGraphic" in2="BackgroundImageFix" result="shape"/>
<feGaussianBlur stdDeviation="0.494907" result="effect1_foregroundBlur_151_4139"/>
</filter>
<filter id="filter8_f_151_4139" x="48.8547" y="133.811" width="11.4468" height="12.4206" filterUnits="userSpaceOnUse" color-interpolation-filters="sRGB">
<feFlood flood-opacity="0" result="BackgroundImageFix"/>
<feBlend mode="normal" in="SourceGraphic" in2="BackgroundImageFix" result="shape"/>
<feGaussianBlur stdDeviation="0.247454" result="effect1_foregroundBlur_151_4139"/>
</filter>
<filter id="filter9_f_151_4139" x="49.3709" y="133.641" width="4.17804" height="3.1565" filterUnits="userSpaceOnUse" color-interpolation-filters="sRGB">
<feFlood flood-opacity="0" result="BackgroundImageFix"/>
<feBlend mode="normal" in="SourceGraphic" in2="BackgroundImageFix" result="shape"/>
<feGaussianBlur stdDeviation="0.399491" result="effect1_foregroundBlur_151_4139"/>
</filter>
<filter id="filter10_f_151_4139" x="55.1318" y="130.538" width="5.04889" height="6.03687" filterUnits="userSpaceOnUse" color-interpolation-filters="sRGB">
<feFlood flood-opacity="0" result="BackgroundImageFix"/>
<feBlend mode="normal" in="SourceGraphic" in2="BackgroundImageFix" result="shape"/>
<feGaussianBlur stdDeviation="0.652847" result="effect1_foregroundBlur_151_4139"/>
</filter>
<radialGradient id="paint0_radial_151_4139" cx="0" cy="0" r="1" gradientUnits="userSpaceOnUse" gradientTransform="translate(58.5588 49.7095) rotate(49.5793) scale(103.348 112.744)">
<stop offset="0.115" stop-color="#EFC400"/>
<stop offset="0.374129" stop-color="#FEDB60"/>
<stop offset="0.565" stop-color="#F7A833"/>
<stop offset="0.746462" stop-color="#FF8800"/>
</radialGradient>
<linearGradient id="paint1_linear_151_4139" x1="125.283" y1="28.2515" x2="31.3609" y2="96.5292" gradientUnits="userSpaceOnUse">
<stop stop-color="white" stop-opacity="0"/>
<stop offset="0.525" stop-color="#FFEEA6"/>
<stop offset="1" stop-color="white" stop-opacity="0"/>
</linearGradient>
<radialGradient id="paint2_radial_151_4139" cx="0" cy="0" r="1" gradientUnits="userSpaceOnUse" gradientTransform="translate(63.3902 81.6529) rotate(23.7494) scale(40.5013 54.0779)">
<stop offset="0.149395" stop-color="white"/>
<stop offset="1" stop-color="#D4AA00"/>
</radialGradient>
<radialGradient id="paint3_radial_151_4139" cx="0" cy="0" r="1" gradientUnits="userSpaceOnUse" gradientTransform="translate(63.8315 75.8994) rotate(14.9406) scale(22.6516 35.1088)">
<stop stop-color="#FDEFB4"/>
<stop offset="1" stop-color="#FFEDA5"/>
</radialGradient>
<radialGradient id="paint4_radial_151_4139" cx="0" cy="0" r="1" gradientUnits="userSpaceOnUse" gradientTransform="translate(56.3266 77.9663) rotate(7.41772) scale(17.8777 32.3699)">
<stop offset="0.512233" stop-color="white"/>
<stop offset="1" stop-color="#FFEDA5" stop-opacity="0"/>
</radialGradient>
<radialGradient id="paint5_radial_151_4139" cx="0" cy="0" r="1" gradientUnits="userSpaceOnUse" gradientTransform="translate(55.1322 132.888) rotate(28.512) scale(7.8254 11.3448)">
<stop offset="0.175" stop-color="white"/>
<stop offset="0.441814" stop-color="#FFDF61"/>
<stop offset="1" stop-color="#EF7003" stop-opacity="0"/>
</radialGradient>
<radialGradient id="paint6_radial_151_4139" cx="0" cy="0" r="1" gradientUnits="userSpaceOnUse" gradientTransform="translate(1.59218 9.22864) rotate(9.02861) scale(3.26162 6.58811)">
<stop stop-color="#FBBD40"/>
<stop offset="1" stop-color="#D0690A"/>
</radialGradient>
<linearGradient id="paint7_linear_151_4139" x1="49.9551" y1="134.93" x2="57.0178" y2="146.122" gradientUnits="userSpaceOnUse">
<stop stop-color="#FFF6CD"/>
<stop offset="0.28" stop-color="#FFBB26"/>
<stop offset="1" stop-color="#FFA908"/>
</linearGradient>
</defs>
</svg>
